<svg width="818" height="559" viewBox="0 0 818 559" fill="none" xmlns="http://www.w3.org/2000/svg">
<path fill-rule="evenodd" clip-rule="evenodd" d="M466.6 380C466.6 517.6 508.2 558.4 645.8 558.4C777.8 558.4 817.8 517.6 817.8 379.2V308.796L749 309.232V376.8C749 468.8 725.8 495.2 645.8 495.2C561 495.2 535.4 468.8 535.4 376V310.589L466.6 311.025V380ZM466.6 261.024V7.20001H535.4V260.588L466.6 261.024ZM749 259.231L817.8 258.795V7.20001H749V259.231Z" fill="#D66000"/>
<path fill-rule="evenodd" clip-rule="evenodd" d="M0 408.8C0 524.8 40.8 556.8 185.6 556.8C331.2 556.8 371.2 524.8 371.2 417.6C371.2 369.795 363.397 337.224 341.971 311.741L221.461 312.506C285.042 338.898 304.8 365.253 304.8 416.8C304.8 481.6 274.4 496.8 187.2 496C100 495.2 76 476.8 69.6 408.8H0ZM86.921 263.359C23.5761 233.624 4 198.791 4 130.4C4 28.8 45.6 0 182.4 0C316.8 0 355.2 28 360.8 128.8H292C286.4 74.4 261.6 60.8 184 60.8C95.2 60.8 70.4 79.2 70.4 131.2C70.4 185.6 102.4 204.8 218.4 244C236.377 250.153 252.406 256.142 266.668 262.218L86.921 263.359Z" fill="#D66000"/>
</svg>
